<svg width="96" height="38" viewBox="0 0 96 38" fill="none" xmlns="http://www.w3.org/2000/svg">
<path d="M3.2084 22.6L3.1784 22.63C3.2084 22.6 3.2084 22.6 3.2084 22.57V22.42C3.5384 20.65 4.1684 18.91 4.7984 17.2C5.4584 15.4 6.0884 13.63 6.9284 11.92C7.7084 10.3 8.6084 8.71 9.6284 7.24C10.5284 5.89 11.6084 4.42 12.9884 3.52C13.4084 3.4 13.8284 2.95 14.3684 3.04C14.9084 3.13 14.9084 3.7 14.7884 4.24C14.9384 3.82 15.0284 3.37 14.6684 3.07C14.1884 2.71 13.2584 3.28 12.8684 3.55C12.6884 3.61 12.5084 3.73 12.3584 3.85C12.4484 3.76 12.5684 3.67 12.7184 3.58L12.5684 3.64L12.9884 3.4C13.4684 3.13 14.5484 2.53 14.9084 3.31C15.1784 3.94 14.7584 4.99 14.5484 5.59C14.1584 6.61 13.6784 7.57 13.1684 8.53C13.2584 8.32 13.6184 7.51 13.6184 7.51C13.4084 7.48 12.4484 9.7 12.2684 9.76H12.2984C12.1784 9.85 12.0884 9.94 12.0884 9.97C12.0284 10.33 12.4484 10.24 12.6884 10.21C13.7084 10.09 15.0284 9.22 15.6884 8.47C16.4084 7.66 16.6784 6.43 16.6784 5.35V5.32C16.6484 3.28 15.2384 0.700001 12.8084 0.850001C11.4584 0.910002 10.1984 2.23 9.3284 3.13C8.6984 3.85 8.0984 4.63 7.5584 5.41C7.3184 5.77 7.0784 6.1 6.8684 6.46C6.6284 6.79 6.1484 7.3 6.0284 7.69C6.0284 7.69 6.1784 7.51 6.2984 7.39C5.9684 7.9 5.6684 8.44 5.3684 8.95C5.3384 8.92 5.5484 8.5 5.5484 8.5C5.2784 8.44 4.0484 10.9 3.8984 11.17C3.3584 12.16 2.8784 13.15 2.5484 14.2C2.1884 15.37 1.7084 16.48 1.3484 17.62C1.1684 18.19 0.988402 18.73 0.868402 19.3C0.808402 19.57 0.748402 19.81 0.718402 20.08C0.718402 20.11 0.658402 20.59 0.718402 20.53C0.658402 20.74 0.658402 21.01 0.628402 21.22C0.628402 21.22 0.628402 20.71 0.658402 20.65C0.538402 20.8 0.628402 21.37 0.598402 21.43C0.448402 22.57 0.208402 23.77 0.598402 24.88C1.1084 26.41 2.3684 27.67 3.7484 28.48C4.4684 28.93 5.4284 29.44 6.3284 29.38C7.3784 29.32 8.3984 28.45 9.1784 27.82C11.4584 25.9 13.5284 23.2 13.9184 20.14C13.9484 19.93 14.0984 18.88 13.7384 18.85C13.4084 18.82 13.1684 19.54 13.0484 19.72C12.1484 21.19 11.0984 22.57 9.9284 23.83C8.7284 25.15 7.2284 26.56 5.3984 26.98C5.1584 27.04 4.8884 27.07 4.6184 27.07C4.2584 27.04 3.9284 26.95 3.6584 26.68C3.5084 26.53 3.3584 26.02 3.1784 25.93C3.1784 25.78 3.1484 25.63 3.1184 25.54L3.0284 25.36C2.9984 24.46 3.0284 23.62 3.1784 22.69V22.66C3.1784 22.63 3.2084 22.63 3.2084 22.6ZM8.4884 7.93C7.3184 9.85 6.3284 11.83 5.3384 13.87C4.7684 15.07 4.1984 16.3 3.7484 17.59C4.3784 15.58 5.1284 13.66 6.0284 11.74C7.1084 9.43 8.5484 7.18 10.2584 5.32C9.5684 6.16 8.9684 7.12 8.4884 7.93ZM11.5784 4.63C11.1584 5.05 10.7684 5.53 10.4084 5.98C10.9784 5.23 11.5784 4.48 12.3284 3.88C12.0584 4.12 11.7884 4.42 11.5784 4.63ZM14.6384 4.87C14.6984 4.69 14.7584 4.48 14.7884 4.24C14.7284 4.51 14.6084 4.78 14.6084 4.99C14.6384 4.93 14.6384 4.9 14.6384 4.87Z" fill="white"/>
<path d="M3.2084 22.6L3.1784 22.63C3.2084 22.6 3.2084 22.6 3.2084 22.57V22.42C3.5384 20.65 4.1684 18.91 4.7984 17.2C5.4584 15.4 6.0884 13.63 6.9284 11.92C7.7084 10.3 8.6084 8.71 9.6284 7.24C10.5284 5.89 11.6084 4.42 12.9884 3.52C13.4084 3.4 13.8284 2.95 14.3684 3.04C14.9084 3.13 14.9084 3.7 14.7884 4.24C14.9384 3.82 15.0284 3.37 14.6684 3.07C14.1884 2.71 13.2584 3.28 12.8684 3.55C12.6884 3.61 12.5084 3.73 12.3584 3.85C12.4484 3.76 12.5684 3.67 12.7184 3.58L12.5684 3.64L12.9884 3.4C13.4684 3.13 14.5484 2.53 14.9084 3.31C15.1784 3.94 14.7584 4.99 14.5484 5.59C14.1584 6.61 13.6784 7.57 13.1684 8.53C13.2584 8.32 13.6184 7.51 13.6184 7.51C13.4084 7.48 12.4484 9.7 12.2684 9.76H12.2984C12.1784 9.85 12.0884 9.94 12.0884 9.97C12.0284 10.33 12.4484 10.24 12.6884 10.21C13.7084 10.09 15.0284 9.22 15.6884 8.47C16.4084 7.66 16.6784 6.43 16.6784 5.35V5.32C16.6484 3.28 15.2384 0.700001 12.8084 0.850001C11.4584 0.910002 10.1984 2.23 9.3284 3.13C8.6984 3.85 8.0984 4.63 7.5584 5.41C7.3184 5.77 7.0784 6.1 6.8684 6.46C6.6284 6.79 6.1484 7.3 6.0284 7.69C6.0284 7.69 6.1784 7.51 6.2984 7.39C5.9684 7.9 5.6684 8.44 5.3684 8.95C5.3384 8.92 5.5484 8.5 5.5484 8.5C5.2784 8.44 4.0484 10.9 3.8984 11.17C3.3584 12.16 2.8784 13.15 2.5484 14.2C2.1884 15.37 1.7084 16.48 1.3484 17.62C1.1684 18.19 0.988402 18.73 0.868402 19.3C0.808402 19.57 0.748402 19.81 0.718402 20.08C0.718402 20.11 0.658402 20.59 0.718402 20.53C0.658402 20.74 0.658402 21.01 0.628402 21.22C0.628402 21.22 0.628402 20.71 0.658402 20.65C0.538402 20.8 0.628402 21.37 0.598402 21.43C0.448402 22.57 0.208402 23.77 0.598402 24.88C1.1084 26.41 2.3684 27.67 3.7484 28.48C4.4684 28.93 5.4284 29.44 6.3284 29.38C7.3784 29.32 8.3984 28.45 9.1784 27.82C11.4584 25.9 13.5284 23.2 13.9184 20.14C13.9484 19.93 14.0984 18.88 13.7384 18.85C13.4084 18.82 13.1684 19.54 13.0484 19.72C12.1484 21.19 11.0984 22.57 9.9284 23.83C8.7284 25.15 7.2284 26.56 5.3984 26.98C5.1584 27.04 4.8884 27.07 4.6184 27.07C4.2584 27.04 3.9284 26.95 3.6584 26.68C3.5084 26.53 3.3584 26.02 3.1784 25.93C3.1784 25.78 3.1484 25.63 3.1184 25.54L3.0284 25.36C2.9984 24.46 3.0284 23.62 3.1784 22.69V22.66C3.1784 22.63 3.2084 22.63 3.2084 22.6ZM8.4884 7.93C7.3184 9.85 6.3284 11.83 5.3384 13.87C4.7684 15.07 4.1984 16.3 3.7484 17.59C4.3784 15.58 5.1284 13.66 6.0284 11.74C7.1084 9.43 8.5484 7.18 10.2584 5.32C9.5684 6.16 8.9684 7.12 8.4884 7.93ZM11.5784 4.63C11.1584 5.05 10.7684 5.53 10.4084 5.98C10.9784 5.23 11.5784 4.48 12.3284 3.88C12.0584 4.12 11.7884 4.42 11.5784 4.63ZM14.6384 4.87C14.6984 4.69 14.7584 4.48 14.7884 4.24C14.7284 4.51 14.6084 4.78 14.6084 4.99C14.6384 4.93 14.6384 4.9 14.6384 4.87Z" fill="black" fill-opacity="0.2"/>
<path d="M29.1591 17.53C29.1591 17.53 29.1891 17.56 29.1591 17.5C29.0091 17.29 28.7991 17.44 28.5891 17.5C27.7191 17.68 26.8191 17.89 25.9191 18.04C26.2491 16.96 26.5791 15.82 26.6991 14.71C26.7591 14.29 26.7891 13.84 26.6991 13.42C26.6391 13.15 26.5491 12.88 26.3991 12.64C26.3991 12.64 26.0391 12.19 26.1291 12.43L26.0991 12.4L25.9791 12.16L26.0991 12.28C26.1291 12.1 25.6191 11.77 25.6191 11.77C24.8691 11.02 23.8491 10.45 22.8291 11.02C22.1991 11.38 21.6891 11.98 21.2691 12.58C21.1191 12.79 20.9691 13.03 20.8491 13.27C20.7291 13.51 20.5491 14.29 20.3691 14.41C20.2191 14.53 19.7691 14.56 19.5591 14.68C19.2591 14.8 18.9891 14.95 18.7491 15.13C18.1791 15.49 17.7291 16 17.3091 16.51C16.5891 17.47 16.2291 18.55 15.7191 19.51C14.7591 21.34 15.8091 23.74 17.5791 24.61C18.1491 24.88 18.8091 25 19.4091 24.94C20.0391 24.85 20.6391 24.52 21.1191 24.16C21.5691 23.83 22.5591 23.23 22.7391 22.72C22.7391 22.69 22.6791 22.72 22.5891 22.81L23.4591 21.79C23.4891 21.82 23.2491 22.12 23.2491 22.12C23.4591 22.21 24.5391 20.62 24.6591 20.5C24.8691 20.14 25.0791 19.75 25.3191 19.39C25.5291 19.12 25.4691 19.15 25.7691 19.03C25.7391 19.06 26.1291 18.94 26.1891 18.94C26.5191 18.88 30.0291 18.64 29.1591 17.53ZM18.7791 23.59H18.7491C16.2591 23.95 19.1391 18.67 19.1991 18.37L19.0191 18.64C19.4691 17.74 19.8891 17.02 20.0991 16.78C20.4291 18.28 22.0491 18.85 23.3691 19.03C22.4991 20.77 20.8791 23.2 18.7791 23.59ZM24.6891 15.28C24.4791 16.12 24.2991 17.23 23.8491 17.98C23.6991 18.28 23.7891 18.19 23.4891 18.25C23.3091 18.31 22.9191 18.25 22.7391 18.22C22.4091 18.19 22.0191 18.13 21.7791 17.92C21.3591 17.56 21.4191 16.99 21.4791 16.48C21.5391 15.97 21.6891 15.49 21.8691 15.01C21.9591 14.83 22.5291 13.87 22.4391 13.69C22.4091 13.6 22.0791 14.14 22.0491 14.17C22.2291 13.84 22.4091 13.66 22.5591 13.45C22.5291 13.45 22.5591 13.42 22.5891 13.36V13.39L22.6191 13.33C22.6191 13.33 22.6191 13.3 22.6491 13.3C23.0991 12.7 24.2091 11.35 24.8091 12.28C25.2591 13.06 24.8391 14.53 24.6891 15.28ZM22.6191 13.33L22.6491 13.3C22.6491 13.33 22.6191 13.33 22.6191 13.33Z" fill="white"/>
<path d="M29.1591 17.53C29.1591 17.53 29.1891 17.56 29.1591 17.5C29.0091 17.29 28.7991 17.44 28.5891 17.5C27.7191 17.68 26.8191 17.89 25.9191 18.04C26.2491 16.96 26.5791 15.82 26.6991 14.71C26.7591 14.29 26.7891 13.84 26.6991 13.42C26.6391 13.15 26.5491 12.88 26.3991 12.64C26.3991 12.64 26.0391 12.19 26.1291 12.43L26.0991 12.4L25.9791 12.16L26.0991 12.28C26.1291 12.1 25.6191 11.77 25.6191 11.77C24.8691 11.02 23.8491 10.45 22.8291 11.02C22.1991 11.38 21.6891 11.98 21.2691 12.58C21.1191 12.79 20.9691 13.03 20.8491 13.27C20.7291 13.51 20.5491 14.29 20.3691 14.41C20.2191 14.53 19.7691 14.56 19.5591 14.68C19.2591 14.8 18.9891 14.95 18.7491 15.13C18.1791 15.49 17.7291 16 17.3091 16.51C16.5891 17.47 16.2291 18.55 15.7191 19.51C14.7591 21.34 15.8091 23.74 17.5791 24.61C18.1491 24.88 18.8091 25 19.4091 24.94C20.0391 24.85 20.6391 24.52 21.1191 24.16C21.5691 23.83 22.5591 23.23 22.7391 22.72C22.7391 22.69 22.6791 22.72 22.5891 22.81L23.4591 21.79C23.4891 21.82 23.2491 22.12 23.2491 22.12C23.4591 22.21 24.5391 20.62 24.6591 20.5C24.8691 20.14 25.0791 19.75 25.3191 19.39C25.5291 19.12 25.4691 19.15 25.7691 19.03C25.7391 19.06 26.1291 18.94 26.1891 18.94C26.5191 18.88 30.0291 18.64 29.1591 17.53ZM18.7791 23.59H18.7491C16.2591 23.95 19.1391 18.67 19.1991 18.37L19.0191 18.64C19.4691 17.74 19.8891 17.02 20.0991 16.78C20.4291 18.28 22.0491 18.85 23.3691 19.03C22.4991 20.77 20.8791 23.2 18.7791 23.59ZM24.6891 15.28C24.4791 16.12 24.2991 17.23 23.8491 17.98C23.6991 18.28 23.7891 18.19 23.4891 18.25C23.3091 18.31 22.9191 18.25 22.7391 18.22C22.4091 18.19 22.0191 18.13 21.7791 17.92C21.3591 17.56 21.4191 16.99 21.4791 16.48C21.5391 15.97 21.6891 15.49 21.8691 15.01C21.9591 14.83 22.5291 13.87 22.4391 13.69C22.4091 13.6 22.0791 14.14 22.0491 14.17C22.2291 13.84 22.4091 13.66 22.5591 13.45C22.5291 13.45 22.5591 13.42 22.5891 13.36V13.39L22.6191 13.33C22.6191 13.33 22.6191 13.3 22.6491 13.3C23.0991 12.7 24.2091 11.35 24.8091 12.28C25.2591 13.06 24.8391 14.53 24.6891 15.28ZM22.6191 13.33L22.6491 13.3C22.6491 13.33 22.6191 13.33 22.6191 13.33Z" fill="black" fill-opacity="0.2"/>
<path d="M44.8079 17.68V17.65C44.6279 16.66 43.2779 18.31 43.0979 18.46C42.2279 19.42 41.4179 20.47 40.6379 21.52C39.8579 22.6 39.1079 23.68 38.2979 24.76C37.9079 25.3 37.5179 25.81 37.0679 26.29C36.9179 26.47 36.5579 26.98 36.2879 26.98C35.2379 26.98 36.0479 22.75 36.1679 22.09C36.3479 20.92 36.4379 19.36 37.1879 18.43C37.3679 18.19 39.4079 15.58 39.4079 15.58C39.3479 15.55 39.1079 15.85 38.9579 16.03L40.2479 14.29L40.3379 14.17L40.5779 13.84C40.6079 13.87 40.5779 13.93 40.5479 13.99L40.8179 13.69L41.5979 12.67C42.1679 11.86 42.7079 10.99 43.2179 10.15C44.0279 8.77 45.1379 6.79 44.5379 5.11C44.0879 3.88 42.4379 3.64 41.3279 4.06C40.5179 4.36 39.8279 4.99 39.2579 5.65C38.9579 6.04 38.6579 6.46 38.3879 6.91C38.2979 7.03 37.9079 7.99 37.8179 8.11H37.8479C37.6679 8.44 37.4879 8.77 37.3679 9.1C37.4279 8.86 37.5779 8.38 37.6979 8.29C37.4579 8.47 37.2479 9.34 37.1879 9.43C36.0479 11.92 35.0579 14.44 34.3379 17.08C33.5279 16.15 32.2379 14.56 30.8279 15.13C29.6579 15.61 28.7879 16.84 28.1879 17.92C27.6479 18.88 27.4979 19.87 27.1079 20.8C26.4179 22.39 26.0879 25.66 28.4279 26.14C29.1479 26.29 29.8079 25.84 30.3779 25.45C31.3979 24.7 32.3579 23.83 33.2579 22.93C33.1079 24.52 32.7779 26.92 34.0679 28.18C35.6579 29.8 37.2479 27.61 38.2079 26.41C39.4379 24.85 40.3979 23.11 41.6279 21.61C42.2279 20.89 42.8279 20.17 43.4579 19.51C43.9379 19.03 44.8979 18.43 44.8079 17.68ZM33.7679 19.66C33.7379 19.75 33.7379 19.81 33.7379 19.81C33.6179 20.53 33.6179 21.16 33.1079 21.67C32.6579 22.15 32.1779 22.6 31.6979 23.05C31.2479 23.47 30.1679 24.7 29.4779 24.64C28.6379 24.55 29.2679 22.63 29.6879 21.46C29.2379 22.66 28.5179 24.61 29.5079 24.67C29.7779 24.7 30.2279 24.46 30.6179 24.13C30.2579 24.46 29.6579 24.91 29.2979 24.73C28.6079 24.43 29.2079 22.72 29.3279 22.24C29.7179 20.86 30.2879 19.54 30.9479 18.28C31.2779 17.65 31.7579 16.63 32.3879 16.57L32.2379 16.66C32.2679 16.63 32.2979 16.63 32.3279 16.63C32.5379 16.57 32.7479 16.72 32.8979 16.84C33.2879 17.11 33.5279 17.62 33.7979 18.01C34.0979 18.49 33.8879 19 33.7679 19.54V19.66ZM38.5979 12.73C38.5979 12.7 38.5979 12.64 38.6279 12.61V12.58C38.6579 12.49 38.6879 12.46 38.6879 12.46V12.43C39.3779 10.51 40.1279 8.59 41.2079 6.85C41.4779 6.4 42.2579 5.02 42.9479 5.41C43.2179 5.56 43.2779 5.95 43.2779 6.22C43.3979 8.02 41.9579 10.15 41.0579 11.59C40.0079 13.27 38.8379 14.92 37.6079 16.45L38.2679 15.76L38.8679 15.01L37.3379 16.99L37.1279 17.26L37.0079 17.38C37.0379 17.2 37.1879 17.02 37.3379 16.81C37.2779 16.87 37.2179 16.93 37.1879 16.99C37.5779 15.7 37.9979 14.41 38.4479 13.12C38.4179 13.15 38.4479 13.09 38.4779 12.97L38.5679 12.82C38.5679 12.79 38.5679 12.76 38.5979 12.73ZM36.0779 15.19C36.0179 15.34 35.8379 16.03 35.7479 16.12C35.7479 16.15 35.7179 16.18 35.6879 16.18C35.9279 15.88 35.7779 15.49 35.8979 15.13C35.9579 14.95 36.2579 14.62 36.3179 14.38C36.3179 14.62 36.1679 15.04 36.0779 15.19ZM31.3079 23.5C32.0579 22.84 32.7779 22.15 33.4679 21.43C33.4079 21.82 32.4779 22.48 32.1479 22.78C31.7579 23.17 31.3079 23.56 30.8579 23.92H30.8279L31.3079 23.5ZM36.6179 12.46C36.4979 12.82 36.3479 13.15 36.1679 13.48C36.3179 13.03 36.4079 12.58 36.6179 12.16C36.7979 11.83 37.0079 11.41 37.1579 11.02C37.0079 11.5 36.7679 12.01 36.6179 12.46ZM38.5679 12.82L38.4479 13.12C38.4479 13.09 38.4779 13.03 38.4779 12.97L38.5679 12.82ZM32.0879 16.78C31.9679 16.87 31.8779 16.99 31.8479 16.99C31.9079 16.99 31.9979 16.87 32.0879 16.78ZM32.9279 16.72C32.9879 16.75 33.0479 16.78 33.1079 16.84L32.9279 16.72ZM38.8679 16.18C38.8679 16.15 38.8979 16.12 38.9279 16.09C38.8979 16.15 38.8679 16.18 38.8679 16.18ZM38.9279 16.09L38.9579 16.03C38.9579 16.06 38.9279 16.09 38.9279 16.09Z" fill="white"/>
<path d="M44.8079 17.68V17.65C44.6279 16.66 43.2779 18.31 43.0979 18.46C42.2279 19.42 41.4179 20.47 40.6379 21.52C39.8579 22.6 39.1079 23.68 38.2979 24.76C37.9079 25.3 37.5179 25.81 37.0679 26.29C36.9179 26.47 36.5579 26.98 36.2879 26.98C35.2379 26.98 36.0479 22.75 36.1679 22.09C36.3479 20.92 36.4379 19.36 37.1879 18.43C37.3679 18.19 39.4079 15.58 39.4079 15.58C39.3479 15.55 39.1079 15.85 38.9579 16.03L40.2479 14.29L40.3379 14.17L40.5779 13.84C40.6079 13.87 40.5779 13.93 40.5479 13.99L40.8179 13.69L41.5979 12.67C42.1679 11.86 42.7079 10.99 43.2179 10.15C44.0279 8.77 45.1379 6.79 44.5379 5.11C44.0879 3.88 42.4379 3.64 41.3279 4.06C40.5179 4.36 39.8279 4.99 39.2579 5.65C38.9579 6.04 38.6579 6.46 38.3879 6.91C38.2979 7.03 37.9079 7.99 37.8179 8.11H37.8479C37.6679 8.44 37.4879 8.77 37.3679 9.1C37.4279 8.86 37.5779 8.38 37.6979 8.29C37.4579 8.47 37.2479 9.34 37.1879 9.43C36.0479 11.92 35.0579 14.44 34.3379 17.08C33.5279 16.15 32.2379 14.56 30.8279 15.13C29.6579 15.61 28.7879 16.84 28.1879 17.92C27.6479 18.88 27.4979 19.87 27.1079 20.8C26.4179 22.39 26.0879 25.66 28.4279 26.14C29.1479 26.29 29.8079 25.84 30.3779 25.45C31.3979 24.7 32.3579 23.83 33.2579 22.93C33.1079 24.52 32.7779 26.92 34.0679 28.18C35.6579 29.8 37.2479 27.61 38.2079 26.41C39.4379 24.85 40.3979 23.11 41.6279 21.61C42.2279 20.89 42.8279 20.17 43.4579 19.51C43.9379 19.03 44.8979 18.43 44.8079 17.68ZM33.7679 19.66C33.7379 19.75 33.7379 19.81 33.7379 19.81C33.6179 20.53 33.6179 21.16 33.1079 21.67C32.6579 22.15 32.1779 22.6 31.6979 23.05C31.2479 23.47 30.1679 24.7 29.4779 24.64C28.6379 24.55 29.2679 22.63 29.6879 21.46C29.2379 22.66 28.5179 24.61 29.5079 24.67C29.7779 24.7 30.2279 24.46 30.6179 24.13C30.2579 24.46 29.6579 24.91 29.2979 24.73C28.6079 24.43 29.2079 22.72 29.3279 22.24C29.7179 20.86 30.2879 19.54 30.9479 18.28C31.2779 17.65 31.7579 16.63 32.3879 16.57L32.2379 16.66C32.2679 16.63 32.2979 16.63 32.3279 16.63C32.5379 16.57 32.7479 16.72 32.8979 16.84C33.2879 17.11 33.5279 17.62 33.7979 18.01C34.0979 18.49 33.8879 19 33.7679 19.54V19.66ZM38.5979 12.73C38.5979 12.7 38.5979 12.64 38.6279 12.61V12.58C38.6579 12.49 38.6879 12.46 38.6879 12.46V12.43C39.3779 10.51 40.1279 8.59 41.2079 6.85C41.4779 6.4 42.2579 5.02 42.9479 5.41C43.2179 5.56 43.2779 5.95 43.2779 6.22C43.3979 8.02 41.9579 10.15 41.0579 11.59C40.0079 13.27 38.8379 14.92 37.6079 16.45L38.2679 15.76L38.8679 15.01L37.3379 16.99L37.1279 17.26L37.0079 17.38C37.0379 17.2 37.1879 17.02 37.3379 16.81C37.2779 16.87 37.2179 16.93 37.1879 16.99C37.5779 15.7 37.9979 14.41 38.4479 13.12C38.4179 13.15 38.4479 13.09 38.4779 12.97L38.5679 12.82C38.5679 12.79 38.5679 12.76 38.5979 12.73ZM36.0779 15.19C36.0179 15.34 35.8379 16.03 35.7479 16.12C35.7479 16.15 35.7179 16.18 35.6879 16.18C35.9279 15.88 35.7779 15.49 35.8979 15.13C35.9579 14.95 36.2579 14.62 36.3179 14.38C36.3179 14.62 36.1679 15.04 36.0779 15.19ZM31.3079 23.5C32.0579 22.84 32.7779 22.15 33.4679 21.43C33.4079 21.82 32.4779 22.48 32.1479 22.78C31.7579 23.17 31.3079 23.56 30.8579 23.92H30.8279L31.3079 23.5ZM36.6179 12.46C36.4979 12.82 36.3479 13.15 36.1679 13.48C36.3179 13.03 36.4079 12.58 36.6179 12.16C36.7979 11.83 37.0079 11.41 37.1579 11.02C37.0079 11.5 36.7679 12.01 36.6179 12.46ZM38.5679 12.82L38.4479 13.12C38.4479 13.09 38.4779 13.03 38.4779 12.97L38.5679 12.82ZM32.0879 16.78C31.9679 16.87 31.8779 16.99 31.8479 16.99C31.9079 16.99 31.9979 16.87 32.0879 16.78ZM32.9279 16.72C32.9879 16.75 33.0479 16.78 33.1079 16.84L32.9279 16.72ZM38.8679 16.18C38.8679 16.15 38.8979 16.12 38.9279 16.09C38.8979 16.15 38.8679 16.18 38.8679 16.18ZM38.9279 16.09L38.9579 16.03C38.9579 16.06 38.9279 16.09 38.9279 16.09Z" fill="black" fill-opacity="0.2"/>
<path d="M54.0952 17.59C54.0952 17.62 54.0952 17.62 54.0652 17.59V17.56C53.5852 16.75 52.9552 17.86 52.6852 18.25C52.1752 18.94 51.6952 19.6 51.1552 20.23C50.7052 20.77 50.2252 21.31 49.8652 21.88C49.8652 21.94 49.8052 22.09 49.8052 22.09C49.6852 22.27 49.5052 22.42 49.3552 22.6C49.0852 22.87 48.8152 23.17 48.5152 23.44C48.0652 23.86 45.5452 26.23 45.2152 24.7C45.0352 23.95 45.2752 23.02 45.4252 22.3C45.5152 21.91 45.6052 21.55 45.6652 21.16C45.7252 20.86 45.6352 20.56 45.7852 20.26C45.8752 20.08 45.9052 20.11 46.1152 20.05L46.6252 19.87C46.9552 19.75 47.2852 19.63 47.5852 19.45C48.0352 19.18 48.4552 18.85 48.8452 18.52C49.7752 17.74 50.7652 16.81 51.1552 15.64C51.3652 14.98 51.3952 14.26 50.9752 13.69C50.5852 13.18 49.9252 12.91 49.3252 12.79C47.7052 12.49 46.4752 13.42 45.5452 14.65C44.4052 16.06 43.5952 17.8 43.2052 19.57C42.9952 20.44 42.8752 21.31 42.7252 22.21C42.5752 23.11 42.4852 23.95 42.9652 24.79C42.9352 24.49 42.8752 24.22 42.8752 23.95C42.8752 23.8 42.9352 23.65 42.9352 23.53C42.9352 23.47 42.8752 23.29 42.8752 23.2C42.8752 22.93 42.9352 22.72 42.9952 22.45C43.0252 22.18 42.9952 21.91 43.0252 21.64C43.0552 21.34 43.1752 21.1 43.2952 20.83C43.3852 20.59 43.4152 20.38 43.5052 20.14C43.5952 19.93 43.6552 19.69 43.7452 19.45C43.7752 19.3 43.9252 19.12 44.0152 18.94C43.9252 19.21 43.7452 19.45 43.6852 19.69C43.5952 20.05 43.6552 20.44 43.6252 20.8C43.5652 21.19 43.4452 21.58 43.3852 22C43.3252 22.39 43.1452 22.75 43.0852 23.14C43.0252 23.5 42.9052 23.77 42.9352 24.13C42.9352 24.34 42.9652 24.55 42.9952 24.73C43.0252 24.97 43.1752 25.12 43.3252 25.3C43.8352 25.9 44.5252 26.38 45.3052 26.59C45.8452 26.74 46.3252 26.71 46.8352 26.44C47.5552 26.05 48.1852 25.45 48.7252 24.88C49.2352 24.31 49.6252 23.68 50.0752 23.08C50.4952 22.54 51.0052 22.03 51.4252 21.49L53.0452 19.39L53.9752 18.16C54.1252 17.98 54.2152 17.83 54.0952 17.59ZM46.6552 17.92C46.6852 17.86 46.6852 17.83 46.6852 17.83C47.1352 16.87 47.4652 15.85 48.0952 14.92L48.6352 14.2C48.7552 14.05 48.9652 13.78 49.1752 13.72C49.6252 13.63 49.7452 14.41 49.7152 14.71L49.5952 15.34C49.5652 15.52 49.6252 15.64 49.5952 15.79C49.5352 15.97 49.3852 16.06 49.2952 16.21L48.7852 16.87C48.0952 17.68 47.2252 18.37 46.2652 18.88C46.4152 18.55 46.5052 18.22 46.6552 17.92Z" fill="white"/>
<path d="M54.0952 17.59C54.0952 17.62 54.0952 17.62 54.0652 17.59V17.56C53.5852 16.75 52.9552 17.86 52.6852 18.25C52.1752 18.94 51.6952 19.6 51.1552 20.23C50.7052 20.77 50.2252 21.31 49.8652 21.88C49.8652 21.94 49.8052 22.09 49.8052 22.09C49.6852 22.27 49.5052 22.42 49.3552 22.6C49.0852 22.87 48.8152 23.17 48.5152 23.44C48.0652 23.86 45.5452 26.23 45.2152 24.7C45.0352 23.95 45.2752 23.02 45.4252 22.3C45.5152 21.91 45.6052 21.55 45.6652 21.16C45.7252 20.86 45.6352 20.56 45.7852 20.26C45.8752 20.08 45.9052 20.11 46.1152 20.05L46.6252 19.87C46.9552 19.75 47.2852 19.63 47.5852 19.45C48.0352 19.18 48.4552 18.85 48.8452 18.52C49.7752 17.74 50.7652 16.81 51.1552 15.64C51.3652 14.98 51.3952 14.26 50.9752 13.69C50.5852 13.18 49.9252 12.91 49.3252 12.79C47.7052 12.49 46.4752 13.42 45.5452 14.65C44.4052 16.06 43.5952 17.8 43.2052 19.57C42.9952 20.44 42.8752 21.31 42.7252 22.21C42.5752 23.11 42.4852 23.95 42.9652 24.79C42.9352 24.49 42.8752 24.22 42.8752 23.95C42.8752 23.8 42.9352 23.65 42.9352 23.53C42.9352 23.47 42.8752 23.29 42.8752 23.2C42.8752 22.93 42.9352 22.72 42.9952 22.45C43.0252 22.18 42.9952 21.91 43.0252 21.64C43.0552 21.34 43.1752 21.1 43.2952 20.83C43.3852 20.59 43.4152 20.38 43.5052 20.14C43.5952 19.93 43.6552 19.69 43.7452 19.45C43.7752 19.3 43.9252 19.12 44.0152 18.94C43.9252 19.21 43.7452 19.45 43.6852 19.69C43.5952 20.05 43.6552 20.44 43.6252 20.8C43.5652 21.19 43.4452 21.58 43.3852 22C43.3252 22.39 43.1452 22.75 43.0852 23.14C43.0252 23.5 42.9052 23.77 42.9352 24.13C42.9352 24.34 42.9652 24.55 42.9952 24.73C43.0252 24.97 43.1752 25.12 43.3252 25.3C43.8352 25.9 44.5252 26.38 45.3052 26.59C45.8452 26.74 46.3252 26.71 46.8352 26.44C47.5552 26.05 48.1852 25.45 48.7252 24.88C49.2352 24.31 49.6252 23.68 50.0752 23.08C50.4952 22.54 51.0052 22.03 51.4252 21.49L53.0452 19.39L53.9752 18.16C54.1252 17.98 54.2152 17.83 54.0952 17.59ZM46.6552 17.92C46.6852 17.86 46.6852 17.83 46.6852 17.83C47.1352 16.87 47.4652 15.85 48.0952 14.92L48.6352 14.2C48.7552 14.05 48.9652 13.78 49.1752 13.72C49.6252 13.63 49.7452 14.41 49.7152 14.71L49.5952 15.34C49.5652 15.52 49.6252 15.64 49.5952 15.79C49.5352 15.97 49.3852 16.06 49.2952 16.21L48.7852 16.87C48.0952 17.68 47.2252 18.37 46.2652 18.88C46.4152 18.55 46.5052 18.22 46.6552 17.92Z" fill="black" fill-opacity="0.2"/>
<path d="M70.3416 8.8C70.2216 7.84 68.7516 7.12 67.9416 7.69C67.2816 8.14 66.6816 9.37 66.2016 10.09L63.2616 14.53C62.8116 15.22 62.3616 15.91 61.8816 16.57C61.7616 16.78 60.6216 18.55 60.6216 18.55C60.7416 18.58 61.0116 18.16 61.0716 18.1C60.2616 19.24 59.2116 20.44 58.2216 21.58C57.8916 22 55.9116 24.61 55.1916 24.28C54.9516 24.16 54.8916 23.77 54.8616 23.56C54.6216 21.97 55.2216 20.38 55.4016 18.85L55.2816 19.15L55.4616 18.4C55.4616 18.49 55.4316 18.58 55.4316 18.67L55.4616 18.49L55.3716 19.39C55.7916 17.59 56.3916 15.85 57.0816 14.17C57.2616 13.75 59.0016 9.4 59.3616 9.01C59.3016 9.04 59.2116 9.16 59.1216 9.28C59.6916 8.23 60.2916 7.24 60.9816 6.28C60.8316 6.52 60.5616 6.97 60.5616 6.97C60.6816 7 61.8816 5.35 61.8816 5.17C61.8816 5.14 61.7916 5.2 61.7016 5.26C62.0016 4.87 62.2116 4.66 61.9716 4C61.6116 3.25 60.5616 2.32 59.6916 2.77C59.5116 2.89 59.3916 3.04 59.2716 3.19C58.6416 4 58.1316 5.05 57.7116 5.95C57.5616 6.31 57.4416 6.37 57.2016 6.64C56.8116 7.09 56.6016 7.69 56.3316 8.2C55.7916 9.28 55.3716 10.42 54.8916 11.53C54.4116 12.55 54.0216 13.6 53.6916 14.68C53.5416 15.1 53.4216 15.52 53.3016 15.94C53.1816 16.36 52.7616 17.14 52.8216 17.59L53.0016 17.2C52.8516 17.71 52.7316 18.25 52.6116 18.79C52.5816 18.79 52.6416 18.4 52.6416 18.4C52.5216 18.4 52.2516 19.72 52.1916 19.9C52.0716 20.53 51.9816 21.16 51.9216 21.82C51.8916 22.51 51.9216 23.14 52.2516 23.77C52.8816 24.88 54.0216 25.96 55.2516 26.35C55.4616 26.41 55.7016 26.47 55.9116 26.44C56.1216 26.41 56.3316 26.32 56.4816 26.17C56.6016 26.11 57.0816 25.6 56.7516 25.84L57.3216 25.3C57.3216 25.3 57.0516 25.63 56.9616 25.69C57.1116 25.63 57.4416 25.18 57.4416 25.18C58.4316 24.1 59.4216 23.05 60.3216 21.88C61.2516 20.62 62.0916 19.24 62.9316 17.89C62.6916 18.61 62.6316 19.33 62.4216 20.05C62.3016 20.44 62.1816 20.83 62.0916 21.22C62.0316 21.37 61.9716 22.09 62.0316 22.03C62.0316 22.12 62.0316 22.18 62.0016 22.24C62.0016 22.21 62.0016 22.18 61.9716 22.15C61.8816 22.18 61.8816 23.08 61.8516 23.23C61.7316 23.65 61.5516 24.04 61.4916 24.52C61.3416 25.78 61.4316 27.25 62.2116 28.33C62.6916 28.99 63.4116 29.35 64.2216 29.41C65.0916 29.44 65.5716 28.96 66.0216 28.3C66.3216 27.85 66.5916 27.46 66.7716 26.95C66.9216 26.53 67.2216 25.72 67.0416 25.3C66.9216 25.03 66.8616 25 66.6216 25.12C66.2916 25.24 65.9016 25.96 65.6916 26.23C65.3916 26.56 64.7916 27.4 64.2816 27.46C63.9816 27.49 64.0416 27.43 63.9816 27.07C63.9516 26.86 63.9516 25.45 63.9816 25.42C63.8916 25.54 63.8616 25.66 63.8316 25.78C63.9516 24.79 64.3716 23.59 64.6716 22.54C65.0316 21.31 65.3016 20.08 65.6316 18.85C65.9916 17.59 66.4716 16.33 66.9816 15.13C67.1016 14.86 68.4516 11.89 68.6616 11.62C68.4516 11.77 67.3716 14.05 67.0116 14.8C67.7316 13.09 68.5716 11.44 69.6216 9.88C69.6516 9.88 69.3216 10.39 69.3816 10.39C69.4716 10.45 70.1916 9.34 70.1316 9.31C70.1016 9.31 70.0716 9.31 70.0416 9.34C70.1916 9.19 70.3716 9.1 70.3416 8.8ZM62.5116 23.05C62.2416 24.28 61.9416 25.93 62.1816 27.16C61.9116 25.78 62.0016 24.22 62.2416 22.84C62.4216 21.7 62.7516 20.65 63.1416 19.6C62.8116 20.8 62.7816 21.85 62.5116 23.05ZM57.5016 11.65C58.3416 9.64 59.5416 7.81 60.8016 6.07C59.5416 7.87 58.5216 9.82 57.6216 11.83C56.9316 13.42 56.3016 14.95 55.8516 16.54C55.9416 16.12 56.0316 15.7 56.1816 15.28C56.5416 14.05 57.0216 12.85 57.5016 11.65ZM56.8116 14.56C57.3516 13.09 57.9816 11.62 58.7016 10.18C58.0416 11.56 57.1416 13.72 56.8116 14.56ZM66.3216 16.54C66.2316 16.81 66.1116 17.08 65.9916 17.32L66.5316 15.94L66.3216 16.54Z" fill="white"/>
<path d="M70.3416 8.8C70.2216 7.84 68.7516 7.12 67.9416 7.69C67.2816 8.14 66.6816 9.37 66.2016 10.09L63.2616 14.53C62.8116 15.22 62.3616 15.91 61.8816 16.57C61.7616 16.78 60.6216 18.55 60.6216 18.55C60.7416 18.58 61.0116 18.16 61.0716 18.1C60.2616 19.24 59.2116 20.44 58.2216 21.58C57.8916 22 55.9116 24.61 55.1916 24.28C54.9516 24.16 54.8916 23.77 54.8616 23.56C54.6216 21.97 55.2216 20.38 55.4016 18.85L55.2816 19.15L55.4616 18.4C55.4616 18.49 55.4316 18.58 55.4316 18.67L55.4616 18.49L55.3716 19.39C55.7916 17.59 56.3916 15.85 57.0816 14.17C57.2616 13.75 59.0016 9.4 59.3616 9.01C59.3016 9.04 59.2116 9.16 59.1216 9.28C59.6916 8.23 60.2916 7.24 60.9816 6.28C60.8316 6.52 60.5616 6.97 60.5616 6.97C60.6816 7 61.8816 5.35 61.8816 5.17C61.8816 5.14 61.7916 5.2 61.7016 5.26C62.0016 4.87 62.2116 4.66 61.9716 4C61.6116 3.25 60.5616 2.32 59.6916 2.77C59.5116 2.89 59.3916 3.04 59.2716 3.19C58.6416 4 58.1316 5.05 57.7116 5.95C57.5616 6.31 57.4416 6.37 57.2016 6.64C56.8116 7.09 56.6016 7.69 56.3316 8.2C55.7916 9.28 55.3716 10.42 54.8916 11.53C54.4116 12.55 54.0216 13.6 53.6916 14.68C53.5416 15.1 53.4216 15.52 53.3016 15.94C53.1816 16.36 52.7616 17.14 52.8216 17.59L53.0016 17.2C52.8516 17.71 52.7316 18.25 52.6116 18.79C52.5816 18.79 52.6416 18.4 52.6416 18.4C52.5216 18.4 52.2516 19.72 52.1916 19.9C52.0716 20.53 51.9816 21.16 51.9216 21.82C51.8916 22.51 51.9216 23.14 52.2516 23.77C52.8816 24.88 54.0216 25.96 55.2516 26.35C55.4616 26.41 55.7016 26.47 55.9116 26.44C56.1216 26.41 56.3316 26.32 56.4816 26.17C56.6016 26.11 57.0816 25.6 56.7516 25.84L57.3216 25.3C57.3216 25.3 57.0516 25.63 56.9616 25.69C57.1116 25.63 57.4416 25.18 57.4416 25.18C58.4316 24.1 59.4216 23.05 60.3216 21.88C61.2516 20.62 62.0916 19.24 62.9316 17.89C62.6916 18.61 62.6316 19.33 62.4216 20.05C62.3016 20.44 62.1816 20.83 62.0916 21.22C62.0316 21.37 61.9716 22.09 62.0316 22.03C62.0316 22.12 62.0316 22.18 62.0016 22.24C62.0016 22.21 62.0016 22.18 61.9716 22.15C61.8816 22.18 61.8816 23.08 61.8516 23.23C61.7316 23.65 61.5516 24.04 61.4916 24.52C61.3416 25.78 61.4316 27.25 62.2116 28.33C62.6916 28.99 63.4116 29.35 64.2216 29.41C65.0916 29.44 65.5716 28.96 66.0216 28.3C66.3216 27.85 66.5916 27.46 66.7716 26.95C66.9216 26.53 67.2216 25.72 67.0416 25.3C66.9216 25.03 66.8616 25 66.6216 25.12C66.2916 25.24 65.9016 25.96 65.6916 26.23C65.3916 26.56 64.7916 27.4 64.2816 27.46C63.9816 27.49 64.0416 27.43 63.9816 27.07C63.9516 26.86 63.9516 25.45 63.9816 25.42C63.8916 25.54 63.8616 25.66 63.8316 25.78C63.9516 24.79 64.3716 23.59 64.6716 22.54C65.0316 21.31 65.3016 20.08 65.6316 18.85C65.9916 17.59 66.4716 16.33 66.9816 15.13C67.1016 14.86 68.4516 11.89 68.6616 11.62C68.4516 11.77 67.3716 14.05 67.0116 14.8C67.7316 13.09 68.5716 11.44 69.6216 9.88C69.6516 9.88 69.3216 10.39 69.3816 10.39C69.4716 10.45 70.1916 9.34 70.1316 9.31C70.1016 9.31 70.0716 9.31 70.0416 9.34C70.1916 9.19 70.3716 9.1 70.3416 8.8ZM62.5116 23.05C62.2416 24.28 61.9416 25.93 62.1816 27.16C61.9116 25.78 62.0016 24.22 62.2416 22.84C62.4216 21.7 62.7516 20.65 63.1416 19.6C62.8116 20.8 62.7816 21.85 62.5116 23.05ZM57.5016 11.65C58.3416 9.64 59.5416 7.81 60.8016 6.07C59.5416 7.87 58.5216 9.82 57.6216 11.83C56.9316 13.42 56.3016 14.95 55.8516 16.54C55.9416 16.12 56.0316 15.7 56.1816 15.28C56.5416 14.05 57.0216 12.85 57.5016 11.65ZM56.8116 14.56C57.3516 13.09 57.9816 11.62 58.7016 10.18C58.0416 11.56 57.1416 13.72 56.8116 14.56ZM66.3216 16.54C66.2316 16.81 66.1116 17.08 65.9916 17.32L66.5316 15.94L66.3216 16.54Z" fill="black" fill-opacity="0.2"/>
<path d="M85.7473 17.56C85.5673 17.59 84.0073 18.07 84.0973 18.31C84.0973 18.34 84.1573 18.37 84.1873 18.37C83.6773 18.58 83.0173 18.61 82.5073 18.94C81.9373 19.33 81.3973 19.72 80.7973 20.05C81.3373 19.12 81.8473 18.13 82.1773 17.14C82.2973 16.78 82.9873 14.56 82.5373 14.32C82.4773 14.29 82.4473 14.56 82.4173 14.71C82.4473 13.51 82.0573 11.68 80.4373 11.56C79.4473 11.5 78.5173 12.73 77.9773 13.39C76.7473 14.95 75.6673 16.63 74.5873 18.25C74.2873 18.7 71.2873 23.56 71.2873 23.56C71.2873 23.56 71.4973 23.26 71.7673 22.87C71.4973 23.32 71.2273 23.8 70.9873 24.28C71.1073 23.83 72.2473 20.26 72.9673 18.16C73.0273 18.07 73.0573 17.95 73.0873 17.86L73.2673 17.35V17.38C73.5373 16.57 73.8073 15.76 74.0473 14.92C74.0473 15.01 73.9273 15.46 73.9573 15.46C74.1373 15.49 74.3773 14.23 74.2573 14.23L74.1673 14.38C74.2573 13.93 74.4073 13.72 74.1373 13.21C73.9273 12.76 73.5673 12.34 73.0573 12.22C72.0673 11.95 71.5873 12.76 71.6473 13.54C71.6473 13.66 71.7973 13.72 71.7973 13.84C71.7973 13.99 71.6473 14.26 71.6173 14.38C71.4073 15.01 71.2573 15.61 71.0173 16.21C70.8973 16.54 69.7873 19.66 69.7873 19.66C69.8473 19.63 69.8773 19.57 69.9073 19.51C69.8173 19.78 69.7273 20.05 69.6073 20.32C69.5773 20.29 69.6973 20.08 69.6373 20.08C69.3373 20.02 68.5873 22.54 68.5273 22.78C68.4073 23.35 68.2573 23.89 68.0473 24.46C67.9573 24.76 67.8373 25.06 67.7473 25.39C67.7473 25.42 67.5973 26.14 67.7473 25.87C67.7173 25.96 67.6873 26.02 67.6873 26.08C67.6873 26.05 67.6573 26.02 67.6573 25.99C67.5673 26.02 67.5073 26.65 67.5073 26.68C67.3873 27.01 67.2373 27.25 67.0873 27.55C66.6973 28.51 66.4873 29.56 66.3373 30.58C66.0973 32.14 65.3773 34.48 66.1573 35.92C66.4273 36.43 67.2673 37.48 67.9273 36.85C68.2273 36.55 68.2273 35.86 68.2573 35.5C68.4373 34.51 68.5873 33.49 68.7973 32.5L69.0673 31.12C69.0973 31.06 69.3373 29.95 69.2473 29.98C69.1873 30.04 69.1273 30.13 69.0973 30.22C69.2473 29.74 69.4573 29.29 69.6373 28.78C69.8773 28.06 70.0573 27.37 70.4173 26.71C70.8373 26.05 71.1973 25.33 71.5873 24.67C71.8873 24.13 72.1573 23.44 72.4873 22.99C72.5773 22.87 72.7573 22.81 72.9073 22.69C73.2073 22.36 73.4173 21.91 73.6573 21.55C74.1073 20.83 74.4973 20.11 74.9773 19.45C75.1873 19.15 77.5873 15.79 77.8273 15.58C77.7673 15.61 77.7073 15.64 77.6473 15.7C77.8873 15.4 78.1573 15.13 78.3973 14.89C78.4273 14.92 78.2173 15.1 78.2473 15.13C78.3073 15.16 79.6873 14.08 79.9273 14.05C80.5873 13.93 80.3473 15.19 80.2573 15.52C80.1073 16.21 79.7173 16.87 79.3873 17.47C79.2073 17.8 79.0273 18.1 78.8773 18.43C78.8473 18.46 78.6073 19.03 78.6973 18.97L78.5173 19.24C78.5773 19.15 78.6073 19.03 78.6073 19.03C78.4873 19.03 78.3373 19.54 78.3073 19.63C78.1273 19.93 77.8873 20.17 77.6473 20.41C77.0173 21.13 76.4473 21.88 75.8173 22.57C75.3373 23.08 74.7073 23.98 73.9873 24.16C73.4773 24.28 73.0873 24.01 73.3573 24.82C73.5373 25.39 74.1973 26.71 74.9173 26.71C75.5773 26.71 76.3873 25.72 76.7773 25.3C77.2273 24.79 77.7373 24.31 78.2173 23.77C78.3373 23.59 79.7173 21.94 79.9273 21.85H79.8973C80.1973 21.7 80.4973 21.82 80.9173 21.52C81.1573 21.34 81.2773 21.16 81.5473 20.98C81.7573 20.86 81.8473 20.71 81.9373 20.62C81.9373 20.62 81.9373 20.65 81.9673 20.65C82.2673 20.35 82.6873 20.44 83.0773 20.17C83.5573 19.84 84.1573 19.42 84.5773 19.03C85.1173 18.55 85.8673 18.28 86.1073 17.47C85.9873 17.5 85.8373 17.5 85.7473 17.56ZM70.3873 20.62V20.65C70.3573 21.04 70.0873 21.49 69.9373 21.85C69.7273 22.42 69.5473 22.99 69.3673 23.56C68.9773 24.76 68.5273 25.96 68.0473 27.1C67.6573 28.06 67.2973 29.11 67.0273 30.16C67.3573 28.69 67.8973 27.25 68.3173 25.87C68.7073 24.61 69.3073 23.38 69.7873 22.15C69.8473 22 70.4173 20.8 70.3573 20.56C70.3873 20.59 70.3873 20.62 70.3873 20.62ZM71.7073 21.52C71.6173 21.88 71.5273 22.21 71.4073 22.51C71.4973 22.21 71.5873 21.85 71.7073 21.52ZM75.8173 16.6L75.2473 17.44C75.4273 17.17 75.6073 16.87 75.8173 16.6ZM80.7073 20.23C80.7373 20.14 80.8873 20.11 80.9773 20.05L80.7073 20.23ZM73.5373 16.72C73.5073 16.75 73.4773 16.84 73.4473 16.96L73.5373 16.72ZM74.8873 17.98V17.95C74.9173 17.92 74.9173 17.92 74.9173 17.89C74.9473 17.86 74.9173 17.92 74.8873 17.98ZM73.3273 17.23C73.3273 17.29 73.2973 17.32 73.2673 17.35L73.3273 17.23ZM66.9673 30.43C66.9673 30.4 66.9673 30.4 66.9973 30.37C66.9973 30.4 66.9973 30.4 66.9673 30.43ZM71.8873 21.16C71.8873 21.19 71.8573 21.19 71.8573 21.19L71.8873 21.16Z" fill="white"/>
<path d="M85.7473 17.56C85.5673 17.59 84.0073 18.07 84.0973 18.31C84.0973 18.34 84.1573 18.37 84.1873 18.37C83.6773 18.58 83.0173 18.61 82.5073 18.94C81.9373 19.33 81.3973 19.72 80.7973 20.05C81.3373 19.12 81.8473 18.13 82.1773 17.14C82.2973 16.78 82.9873 14.56 82.5373 14.32C82.4773 14.29 82.4473 14.56 82.4173 14.71C82.4473 13.51 82.0573 11.68 80.4373 11.56C79.4473 11.5 78.5173 12.73 77.9773 13.39C76.7473 14.95 75.6673 16.63 74.5873 18.25C74.2873 18.7 71.2873 23.56 71.2873 23.56C71.2873 23.56 71.4973 23.26 71.7673 22.87C71.4973 23.32 71.2273 23.8 70.9873 24.28C71.1073 23.83 72.2473 20.26 72.9673 18.16C73.0273 18.07 73.0573 17.95 73.0873 17.86L73.2673 17.35V17.38C73.5373 16.57 73.8073 15.76 74.0473 14.92C74.0473 15.01 73.9273 15.46 73.9573 15.46C74.1373 15.49 74.3773 14.23 74.2573 14.23L74.1673 14.38C74.2573 13.93 74.4073 13.72 74.1373 13.21C73.9273 12.76 73.5673 12.34 73.0573 12.22C72.0673 11.95 71.5873 12.76 71.6473 13.54C71.6473 13.66 71.7973 13.72 71.7973 13.84C71.7973 13.99 71.6473 14.26 71.6173 14.38C71.4073 15.01 71.2573 15.61 71.0173 16.21C70.8973 16.54 69.7873 19.66 69.7873 19.66C69.8473 19.63 69.8773 19.57 69.9073 19.51C69.8173 19.78 69.7273 20.05 69.6073 20.32C69.5773 20.29 69.6973 20.08 69.6373 20.08C69.3373 20.02 68.5873 22.54 68.5273 22.78C68.4073 23.35 68.2573 23.89 68.0473 24.46C67.9573 24.76 67.8373 25.06 67.7473 25.39C67.7473 25.42 67.5973 26.14 67.7473 25.87C67.7173 25.96 67.6873 26.02 67.6873 26.08C67.6873 26.05 67.6573 26.02 67.6573 25.99C67.5673 26.02 67.5073 26.65 67.5073 26.68C67.3873 27.01 67.2373 27.25 67.0873 27.55C66.6973 28.51 66.4873 29.56 66.3373 30.58C66.0973 32.14 65.3773 34.48 66.1573 35.92C66.4273 36.43 67.2673 37.48 67.9273 36.85C68.2273 36.55 68.2273 35.86 68.2573 35.5C68.4373 34.51 68.5873 33.49 68.7973 32.5L69.0673 31.12C69.0973 31.06 69.3373 29.95 69.2473 29.98C69.1873 30.04 69.1273 30.13 69.0973 30.22C69.2473 29.74 69.4573 29.29 69.6373 28.78C69.8773 28.06 70.0573 27.37 70.4173 26.71C70.8373 26.05 71.1973 25.33 71.5873 24.67C71.8873 24.13 72.1573 23.44 72.4873 22.99C72.5773 22.87 72.7573 22.81 72.9073 22.69C73.2073 22.36 73.4173 21.91 73.6573 21.55C74.1073 20.83 74.4973 20.11 74.9773 19.45C75.1873 19.15 77.5873 15.79 77.8273 15.58C77.7673 15.61 77.7073 15.64 77.6473 15.7C77.8873 15.4 78.1573 15.13 78.3973 14.89C78.4273 14.92 78.2173 15.1 78.2473 15.13C78.3073 15.16 79.6873 14.08 79.9273 14.05C80.5873 13.93 80.3473 15.19 80.2573 15.52C80.1073 16.21 79.7173 16.87 79.3873 17.47C79.2073 17.8 79.0273 18.1 78.8773 18.43C78.8473 18.46 78.6073 19.03 78.6973 18.97L78.5173 19.24C78.5773 19.15 78.6073 19.03 78.6073 19.03C78.4873 19.03 78.3373 19.54 78.3073 19.63C78.1273 19.93 77.8873 20.17 77.6473 20.41C77.0173 21.13 76.4473 21.88 75.8173 22.57C75.3373 23.08 74.7073 23.98 73.9873 24.16C73.4773 24.28 73.0873 24.01 73.3573 24.82C73.5373 25.39 74.1973 26.71 74.9173 26.71C75.5773 26.71 76.3873 25.72 76.7773 25.3C77.2273 24.79 77.7373 24.31 78.2173 23.77C78.3373 23.59 79.7173 21.94 79.9273 21.85H79.8973C80.1973 21.7 80.4973 21.82 80.9173 21.52C81.1573 21.34 81.2773 21.16 81.5473 20.98C81.7573 20.86 81.8473 20.71 81.9373 20.62C81.9373 20.62 81.9373 20.65 81.9673 20.65C82.2673 20.35 82.6873 20.44 83.0773 20.17C83.5573 19.84 84.1573 19.42 84.5773 19.03C85.1173 18.55 85.8673 18.28 86.1073 17.47C85.9873 17.5 85.8373 17.5 85.7473 17.56ZM70.3873 20.62V20.65C70.3573 21.04 70.0873 21.49 69.9373 21.85C69.7273 22.42 69.5473 22.99 69.3673 23.56C68.9773 24.76 68.5273 25.96 68.0473 27.1C67.6573 28.06 67.2973 29.11 67.0273 30.16C67.3573 28.69 67.8973 27.25 68.3173 25.87C68.7073 24.61 69.3073 23.38 69.7873 22.15C69.8473 22 70.4173 20.8 70.3573 20.56C70.3873 20.59 70.3873 20.62 70.3873 20.62ZM71.7073 21.52C71.6173 21.88 71.5273 22.21 71.4073 22.51C71.4973 22.21 71.5873 21.85 71.7073 21.52ZM75.8173 16.6L75.2473 17.44C75.4273 17.17 75.6073 16.87 75.8173 16.6ZM80.7073 20.23C80.7373 20.14 80.8873 20.11 80.9773 20.05L80.7073 20.23ZM73.5373 16.72C73.5073 16.75 73.4773 16.84 73.4473 16.96L73.5373 16.72ZM74.8873 17.98V17.95C74.9173 17.92 74.9173 17.92 74.9173 17.89C74.9473 17.86 74.9173 17.92 74.8873 17.98ZM73.3273 17.23C73.3273 17.29 73.2973 17.32 73.2673 17.35L73.3273 17.23ZM66.9673 30.43C66.9673 30.4 66.9673 30.4 66.9973 30.37C66.9973 30.4 66.9973 30.4 66.9673 30.43ZM71.8873 21.16C71.8873 21.19 71.8573 21.19 71.8573 21.19L71.8873 21.16Z" fill="black" fill-opacity="0.2"/>
<path d="M95.7945 17.95C95.7045 17.53 95.4645 17.47 95.1645 17.59C94.5945 17.86 94.0245 18.46 93.4845 18.82C92.2545 19.6 91.0245 20.23 89.7045 20.89C89.7045 20.86 89.6745 20.8 89.6445 20.71C89.6745 20.86 89.6445 20.92 89.6145 20.95C89.3145 19.66 89.0145 18.37 88.7745 17.05C88.8945 17.62 89.1645 18.58 89.3745 19.39C89.1045 18.13 88.7745 16.57 88.8045 16.57C88.7445 16.6 88.7445 16.66 88.7445 16.72C88.6845 16.36 88.5945 15.91 88.6545 15.52C88.6845 15.07 88.9245 14.68 89.0745 14.26C89.0445 14.47 88.9845 14.74 88.9845 14.74C89.1645 14.77 89.2845 13.66 89.2845 13.54C89.2545 13.36 88.8645 12.79 88.8645 12.94C88.0545 12.19 86.4645 13.84 86.2245 14.56C86.0445 15.04 86.0445 15.55 86.0745 16.06C86.1045 16.57 86.2545 17.02 86.4045 17.5C86.4945 17.86 86.3745 18.1 86.4045 18.49C86.4645 19.09 86.6745 19.69 86.7945 20.26C86.9145 20.71 87.3045 21.61 87.2145 22.03C87.1545 22.45 86.2545 22.81 85.8645 23.05C85.3545 23.38 84.8445 23.77 84.3345 24.16C83.4345 24.85 82.4745 25.72 82.1145 26.83C82.0545 26.98 81.8445 27.64 82.0545 27.76C82.0845 27.79 82.1745 27.28 82.2045 27.22C81.8145 29.2 83.7645 30.16 85.5945 30.19C87.6645 30.25 89.1045 29.05 89.8245 27.19C90.1245 26.38 90.2145 25.54 90.1845 24.7C90.1845 24.13 90.1245 23.59 90.0345 23.05C89.9745 22.57 89.9145 22.6 90.2445 22.33C90.4845 22.15 90.8445 22.03 91.0845 21.91C92.0445 21.4 92.9145 20.8 93.7845 20.17C94.4145 19.72 95.9145 18.94 95.7945 17.98V17.95ZM83.6745 28.27C82.8945 28.03 83.6745 26.8 83.9445 26.41C84.3945 25.81 85.0545 25.36 85.6545 24.94L86.5545 24.34C86.6445 24.28 87.2145 23.83 87.0345 23.89L87.3945 23.68L87.1845 23.86C87.2445 23.83 87.3345 23.8 87.3945 23.74C87.4245 24.46 87.4245 25.18 87.2145 25.9C87.1845 26.02 86.6145 27.22 86.3745 27.46L86.5245 27.34C86.2545 27.67 85.9545 27.94 85.5945 28.15C85.5945 28.12 85.8645 27.94 85.8345 27.91L84.9945 28.24C84.5745 28.33 84.0945 28.42 83.6745 28.27ZM87.4545 29.14C86.6745 29.47 85.9245 29.62 85.1145 29.65C86.5845 29.56 88.1145 28.84 88.9845 27.61C88.6545 28.27 88.2345 28.78 87.4545 29.14ZM89.6445 20.62C89.6145 20.41 89.5545 20.11 89.4645 19.78C89.5245 20.11 89.5845 20.44 89.6445 20.62ZM90.0345 23.74C90.0045 23.71 90.0045 23.65 90.0045 23.59C90.0045 23.65 90.0345 23.71 90.0345 23.74Z" fill="white"/>
<path d="M95.7945 17.95C95.7045 17.53 95.4645 17.47 95.1645 17.59C94.5945 17.86 94.0245 18.46 93.4845 18.82C92.2545 19.6 91.0245 20.23 89.7045 20.89C89.7045 20.86 89.6745 20.8 89.6445 20.71C89.6745 20.86 89.6445 20.92 89.6145 20.95C89.3145 19.66 89.0145 18.37 88.7745 17.05C88.8945 17.62 89.1645 18.58 89.3745 19.39C89.1045 18.13 88.7745 16.57 88.8045 16.57C88.7445 16.6 88.7445 16.66 88.7445 16.72C88.6845 16.36 88.5945 15.91 88.6545 15.52C88.6845 15.07 88.9245 14.68 89.0745 14.26C89.0445 14.47 88.9845 14.74 88.9845 14.74C89.1645 14.77 89.2845 13.66 89.2845 13.54C89.2545 13.36 88.8645 12.79 88.8645 12.94C88.0545 12.19 86.4645 13.84 86.2245 14.56C86.0445 15.04 86.0445 15.55 86.0745 16.06C86.1045 16.57 86.2545 17.02 86.4045 17.5C86.4945 17.86 86.3745 18.1 86.4045 18.49C86.4645 19.09 86.6745 19.69 86.7945 20.26C86.9145 20.71 87.3045 21.61 87.2145 22.03C87.1545 22.45 86.2545 22.81 85.8645 23.05C85.3545 23.38 84.8445 23.77 84.3345 24.16C83.4345 24.85 82.4745 25.72 82.1145 26.83C82.0545 26.98 81.8445 27.64 82.0545 27.76C82.0845 27.79 82.1745 27.28 82.2045 27.22C81.8145 29.2 83.7645 30.16 85.5945 30.19C87.6645 30.25 89.1045 29.05 89.8245 27.19C90.1245 26.38 90.2145 25.54 90.1845 24.7C90.1845 24.13 90.1245 23.59 90.0345 23.05C89.9745 22.57 89.9145 22.6 90.2445 22.33C90.4845 22.15 90.8445 22.03 91.0845 21.91C92.0445 21.4 92.9145 20.8 93.7845 20.17C94.4145 19.72 95.9145 18.94 95.7945 17.98V17.95ZM83.6745 28.27C82.8945 28.03 83.6745 26.8 83.9445 26.41C84.3945 25.81 85.0545 25.36 85.6545 24.94L86.5545 24.34C86.6445 24.28 87.2145 23.83 87.0345 23.89L87.3945 23.68L87.1845 23.86C87.2445 23.83 87.3345 23.8 87.3945 23.74C87.4245 24.46 87.4245 25.18 87.2145 25.9C87.1845 26.02 86.6145 27.22 86.3745 27.46L86.5245 27.34C86.2545 27.67 85.9545 27.94 85.5945 28.15C85.5945 28.12 85.8645 27.94 85.8345 27.91L84.9945 28.24C84.5745 28.33 84.0945 28.42 83.6745 28.27ZM87.4545 29.14C86.6745 29.47 85.9245 29.62 85.1145 29.65C86.5845 29.56 88.1145 28.84 88.9845 27.61C88.6545 28.27 88.2345 28.78 87.4545 29.14ZM89.6445 20.62C89.6145 20.41 89.5545 20.11 89.4645 19.78C89.5245 20.11 89.5845 20.44 89.6445 20.62ZM90.0345 23.74C90.0045 23.71 90.0045 23.65 90.0045 23.59C90.0045 23.65 90.0345 23.71 90.0345 23.74Z" fill="black" fill-opacity="0.2"/>
</svg>
